{
  "accessors": [
    {
      "bufferView": 2,
      "componentType": 5126,
      "count": 23101,
      "max": [
        1.0000001192092896,
        0.081000000238418579,
        1.0000001192092896
      ],
      "min": [
        -1.0000001192092896,
        -0,
        -1.0000001192092896
      ],
      "type": "VEC3"
    },
    {
      "bufferView": 2,
      "byteOffset": 277212,
      "componentType": 5126,
      "count": 23101,
      "max": [
        1,
        1,
        1
      ],
      "min": [
        -1,
        -1,
        -1
      ],
      "type": "VEC3"
    },
    {
      "bufferView": 1,
      "componentType": 5126,
      "count": 23101,
      "max": [
        1.0000001192092896,
        1.0000001192092896
      ],
      "min": [
        -1.4901115008569832e-08,
        -7.450577932388569e-09
      ],
      "type": "VEC2"
    },
    {
      "bufferView": 0,
      "componentType": 5125,
      "count": 31320,
      "max": [
        23100
      ],
      "min": [
        0
      ],
      "type": "SCALAR"
    },
    {
      "bufferView": 2,
      "byteOffset": 554424,
      "componentType": 5126,
      "count": 65532,
      "max": [
        1.0003553628921509,
        0.081314645707607269,
        1.0003759860992432
      ],
      "min": [
        -1.0003437995910645,
        -0.000273991929134354,
        -1.0003591775894165
      ],
      "type": "VEC3"
    },
    {
      "bufferView": 2,
      "byteOffset": 1340808,
      "componentType": 5126,
      "count": 65532,
      "max": [
        0.99999910593032837,
        0.9952017068862915,
        0.99999934434890747
      ],
      "min": [
        -0.99999880790710449,
        -0.97922772169113159,
        -0.99997895956039429
      ],
      "type": "VEC3"
    },
    {
      "bufferView": 1,
      "byteOffset": 184808,
      "componentType": 5126,
      "count": 65532,
      "max": [
        1.0000001192092896,
        1.0000001192092896
      ],
      "min": [
        -1.4901115008569832e-08,
        -7.450577932388569e-09
      ],
      "type": "VEC2"
    },
    {
      "bufferView": 0,
      "byteOffset": 125280,
      "componentType": 5125,
      "count": 98298,
      "max": [
        65531
      ],
      "min": [
        0
      ],
      "type": "SCALAR"
    },
    {
      "bufferView": 2,
      "byteOffset": 2127192,
      "componentType": 5126,
      "count": 65532,
      "max": [
        1.0003553628921509,
        0.081314645707607269,
        1.0003759860992432
      ],
      "min": [
        -1.0003437995910645,
        -0.000273991929134354,
        -1.0003591775894165
      ],
      "type": "VEC3"
    },
    {
      "bufferView": 2,
      "byteOffset": 2913576,
      "componentType": 5126,
      "count": 65532,
      "max": [
        0.99999994039535522,
        0.9875749945640564,
        1
      ],
      "min": [
        -1,
        -0.99062734842300415,
        -1
      ],
      "type": "VEC3"
    },
    {
      "bufferView": 1,
      "byteOffset": 709064,
      "componentType": 5126,
      "count": 65532,
      "max": [
        1.0000001192092896,
        1.0000001192092896
      ],
      "min": [
        -1.4901115008569832e-08,
        -7.450577932388569e-09
      ],
      "type": "VEC2"
    },
    {
      "bufferView": 0,
      "byteOffset": 518472,
      "componentType": 5125,
      "count": 98298,
      "max": [
        65531
      ],
      "min": [
        0
      ],
      "type": "SCALAR"
    },
    {
      "bufferView": 2,
      "byteOffset": 3699960,
      "componentType": 5126,
      "count": 54936,
      "max": [
        1.0003161430358887,
        0.081314645707607269,
        0.85963296890258789
      ],
      "min": [
        -1.0003437995910645,
        -0.00026785137015394866,
        -1.0003591775894165
      ],
      "type": "VEC3"
    },
    {
      "bufferView": 2,
      "byteOffset": 4359192,
      "componentType": 5126,
      "count": 54936,
      "max": [
        1,
        0.98896533250808716,
        1
      ],
      "min": [
        -0.99999970197677612,
        -0.98896235227584839,
        -0.9999995231628418
      ],
      "type": "VEC3"
    },
    {
      "bufferView": 1,
      "byteOffset": 1233320,
      "componentType": 5126,
      "count": 54936,
      "max": [
        1.0000001192092896,
        1.0000001192092896
      ],
      "min": [
        -1.4901115008569832e-08,
        0.070312485098838806
      ],
      "type": "VEC2"
    },
    {
      "bufferView": 0,
      "byteOffset": 911664,
      "componentType": 5125,
      "count": 82404,
      "max": [
        54935
      ],
      "min": [
        0
      ],
      "type": "SCALAR"
    }
  ],
  "asset": {
    "extras": {
      "author": "Adamante (https://sketchfab.com/Adamant6686)",
      "license": "CC-BY-4.0 (http://creativecommons.org/licenses/by/4.0/)",
      "source": "https://sketchfab.com/3d-models/abstract-red-background-c8e13126e1d04d3e83de457233fdcf2a",
      "title": "Abstract red background"
    },
    "generator": "Sketchfab-9.80.0",
    "version": "2.0"
  },
  "bufferViews": [
    {
      "buffer": 0,
      "byteLength": 1241280,
      "byteOffset": 0,
      "name": "floatBufferViews",
      "target": 34963
    },
    {
      "buffer": 0,
      "byteLength": 1672808,
      "byteOffset": 1241280,
      "byteStride": 8,
      "name": "floatBufferViews",
      "target": 34962
    },
    {
      "buffer": 0,
      "byteLength": 5018424,
      "byteOffset": 2914088,
      "byteStride": 12,
      "name": "floatBufferViews",
      "target": 34962
    }
  ],
  "buffers": [
    {
      "byteLength": 7932512,
      "uri": "scene.bin"
    }
  ],
  "materials": [
    {
      "doubleSided": true,
      "name": "Material.001",
      "pbrMetallicRoughness": {
        "baseColorFactor": [
          0,
          0,
          0,
          1
        ],
        "metallicFactor": 0.62681323075635709,
        "roughnessFactor": 0.35369200134666312
      }
    },
    {
      "doubleSided": true,
      "emissiveFactor": [
        1,
        0,
        0
      ],
      "name": "Material.002",
      "pbrMetallicRoughness": {
        "baseColorFactor": [
          1,
          0,
          0,
          1
        ],
        "metallicFactor": 0,
        "roughnessFactor": 0
      }
    }
  ],
  "meshes": [
    {
      "primitives": [
        {
          "attributes": {
            "NORMAL": 1,
            "POSITION": 0,
            "TEXCOORD_0": 2
          },
          "indices": 3,
          "material": 0,
          "mode": 4
        }
      ]
    },
    {
      "primitives": [
        {
          "attributes": {
            "NORMAL": 5,
            "POSITION": 4,
            "TEXCOORD_0": 6
          },
          "indices": 7,
          "material": 1,
          "mode": 4
        }
      ]
    },
    {
      "primitives": [
        {
          "attributes": {
            "NORMAL": 9,
            "POSITION": 8,
            "TEXCOORD_0": 10
          },
          "indices": 11,
          "material": 1,
          "mode": 4
        }
      ]
    },
    {
      "primitives": [
        {
          "attributes": {
            "NORMAL": 13,
            "POSITION": 12,
            "TEXCOORD_0": 14
          },
          "indices": 15,
          "material": 1,
          "mode": 4
        }
      ]
    }
  ],
  "nodes": [
    {
      "children": [
        1
      ],
      "name": "RootNode (gltf orientation matrix)",
      "rotation": [
        -0.70710678118654746,
        -0,
        -0,
        0.70710678118654757
      ]
    },
    {
      "children": [
        2
      ],
      "matrix": [
        1,
        0,
        0,
        0,
        0,
        2.2204460492503131e-16,
        1,
        0,
        0,
        -1,
        2.2204460492503131e-16,
        0,
        0,
        0.040511850267648697,
        0.040528658777475357,
        1
      ],
      "name": "RootNode (model correction matrix)"
    },
    {
      "children": [
        3
      ],
      "name": "root"
    },
    {
      "children": [
        4
      ],
      "matrix": [
        1,
        0,
        0,
        0,
        0,
        2.2204460492503131e-16,
        1,
        0,
        0,
        -1,
        2.2204460492503131e-16,
        0,
        0,
        0,
        0,
        1
      ],
      "name": "GLTF_SceneRootNode"
    },
    {
      "children": [
        5,
        6,
        7,
        8
      ],
      "name": "Plane_0"
    },
    {
      "mesh": 0,
      "name": ""
    },
    {
      "mesh": 1,
      "name": ""
    },
    {
      "mesh": 2,
      "name": ""
    },
    {
      "mesh": 3,
      "name": ""
    }
  ],
  "scene": 0,
  "scenes": [
    {
      "name": "OSG_Scene",
      "nodes": [
        0
      ]
    }
  ]
}

